<?xml version="1.0" standalone="no"?><!DOCTYPE svg PUBLIC "-//W3C//DTD SVG 1.1//EN" "http://www.w3.org/Graphics/SVG/1.1/DTD/svg11.dtd"><svg t="1725084459213" class="icon" viewBox="0 0 1024 1024" version="1.1" xmlns="http://www.w3.org/2000/svg" p-id="6963" xmlns:xlink="http://www.w3.org/1999/xlink" width="200" height="200"><path d="M695.1 905.7H332.6c-18 0-34.8-9.6-43.9-25.1L97.8 556.1c-9.9-16.8-9.4-37.4 1.2-53.7 20.8-31.7 73.2-114.4 110.5-197C230.1 260.3 243 221.8 248 191c5.3-32.4 1.9-54.9-10.1-67-7.8-7.8-7.8-20.5 0-28.3s20.5-7.8 28.3 0c21.6 21.6 28.8 55.9 21.3 101.7-5.6 34.2-19.5 76.1-41.4 124.5-38.5 85.2-92.2 170-113.6 202.4-2.3 3.4-2.3 7.8-0.2 11.4l190.9 324.5c2 3.3 5.6 5.4 9.4 5.4h362.5c4 0 7.6-2.2 9.6-5.6l191.8-345.3c2-3.5 1.8-7.9-0.4-11.3L684.7 176.8c-2-3.1-5.5-5-9.2-5H440.7c-11 0-20-9-20-20s9-20 20-20h234.8c17.4 0 33.3 8.7 42.8 23.3l211.4 326.7c10.2 15.8 10.9 35.9 1.8 52.4L739.7 879.5c-9 16.2-26.1 26.2-44.6 26.2z" p-id="6964"></path><path d="M524.6 508.3m-62.9 0a62.9 62.9 0 1 0 125.8 0 62.9 62.9 0 1 0-125.8 0Z" p-id="6965"></path></svg>